<svg width="227" height="79" viewBox="0 0 227 79" fill="none" xmlns="http://www.w3.org/2000/svg">
<path d="M62.0465 21.3958H20.6825C18.9845 21.3958 18.2732 23.5051 19.6413 24.4832L42.342 40.7143C45.4848 42.9614 49.9076 42.2909 52.1982 39.22L63.4693 24.1097C64.3125 22.9793 63.4823 21.3958 62.0465 21.3958Z" fill="#1A237E"/>
<path d="M16.1584 60.8958H56.6951C58.3591 60.8958 59.0562 58.7864 57.7155 57.8083L35.4688 41.5772C32.3888 39.3301 28.0545 40.0006 25.8097 43.0715L14.764 58.1818C13.9377 59.3122 14.7513 60.8958 16.1584 60.8958Z" fill="#1A237E"/>
<path d="M62.0464 19.75H20.6824C18.9844 19.75 18.2731 21.8593 19.6412 22.8375L42.3419 39.0685C45.4847 41.3156 49.9075 40.6451 52.1981 37.5743L63.4692 22.4639C64.3124 21.3336 63.4822 19.75 62.0464 19.75Z" fill="#FF9B29"/>
<path d="M16.1583 59.25H56.695C58.359 59.25 59.0561 57.1407 57.7154 56.1625L35.4687 39.9315C32.3887 37.6844 28.0544 38.3549 25.8096 41.4257L14.7639 56.5361C13.9376 57.6664 14.7512 59.25 16.1583 59.25Z" fill="#FF9B29"/>
<text fill="#1A237E" xml:space="preserve" style="white-space: pre" font-family="Bauhaus LT" font-size="45" letter-spacing="0em"><tspan x="71.5024" y="55.79">zennero</tspan></text>
</svg>
