<svg width="58" height="58" viewBox="0 0 58 58" fill="none" xmlns="http://www.w3.org/2000/svg">
<path d="M45.5531 15.7083H15.1846C13.938 15.7083 13.4158 17.2569 14.4202 17.975L31.0865 29.8915C33.3939 31.5413 36.641 31.049 38.3227 28.7944L46.5977 17.7007C47.2167 16.8709 46.6072 15.7083 45.5531 15.7083Z" fill="#1A237E"/>
<path d="M11.8631 44.7083H41.6242C42.8459 44.7083 43.3577 43.1596 42.3734 42.4415L26.0403 30.525C23.7791 28.8752 20.5969 29.3675 18.9489 31.6221L10.8394 42.7158C10.2327 43.5456 10.8301 44.7083 11.8631 44.7083Z" fill="#1A237E"/>
<path d="M45.553 14.5H15.1845C13.9379 14.5 13.4156 16.0486 14.42 16.7667L31.0864 28.6832C33.3938 30.333 36.6409 29.8407 38.3226 27.5862L46.5976 16.4925C47.2166 15.6626 46.6071 14.5 45.553 14.5Z" fill="#C3D639"/>
<path d="M11.863 43.5H41.6241C42.8458 43.5 43.3576 41.9514 42.3733 41.2333L26.0402 29.3168C23.779 27.667 20.5968 28.1593 18.9487 30.4138L10.8392 41.5075C10.2326 42.3374 10.8299 43.5 11.863 43.5Z" fill="#C3D639"/>
</svg>
